<?xml version="1.0" encoding="UTF-8"?>
<svg id="Layer_1" xmlns="http://www.w3.org/2000/svg" viewBox="0 0 167.94 37.94">
  <defs>
    <style>
      .cls-1 {
        fill: #6f6f6f;
      }

      .cls-2 {
        fill: #757575;
      }

      .cls-3 {
        fill: #525252;
      }

      .cls-4 {
        fill: #5f5f5f;
      }

      .cls-5 {
        fill: #585858;
      }

      .cls-6 {
        fill: #9a9a9a;
      }

      .cls-7 {
        fill: #777;
      }

      .cls-8 {
        fill: #727272;
      }

      .cls-9 {
        fill: #a7a7a7;
      }

      .cls-10 {
        fill: #767676;
      }

      .cls-11 {
        fill: #0c0c0c;
      }

      .cls-12 {
        fill: #8f8f8f;
      }

      .cls-13 {
        fill: #5e5e5e;
      }

      .cls-14 {
        fill: #6e6e6e;
      }

      .cls-15 {
        fill: #5b5b5b;
      }

      .cls-16 {
        fill: #9b9b9b;
      }

      .cls-17 {
        fill: #606060;
      }

      .cls-18 {
        fill: #535353;
      }

      .cls-19 {
        fill: #6a6a6a;
      }

      .cls-20 {
        fill: #737373;
      }

      .cls-21 {
        fill: #6c6c6c;
      }

      .cls-22 {
        fill: #656565;
      }

      .cls-23 {
        fill: #575757;
      }

      .cls-24 {
        fill: #686868;
      }

      .cls-25 {
        fill: #666;
      }

      .cls-26 {
        fill: #939393;
      }

      .cls-27 {
        fill: #555;
      }

      .cls-28 {
        fill: #6d6d6d;
      }

      .cls-29 {
        fill: #616161;
      }

      .cls-30 {
        fill: #717171;
      }

      .cls-31 {
        fill: #595959;
      }

      .cls-32 {
        fill: #747474;
      }

      .cls-33 {
        fill: #696969;
      }

      .cls-34 {
        fill: #545454;
      }

      .cls-35 {
        fill: #6b6b6b;
      }

      .cls-36 {
        fill: #a9a9a9;
      }

      .cls-37 {
        fill: #ababab;
      }

      .cls-38 {
        fill: #5d5d5d;
      }

      .cls-39 {
        fill: #676767;
      }

      .cls-40 {
        fill: #787878;
      }

      .cls-41 {
        fill: #707070;
      }

      .cls-42 {
        fill: #5c5c5c;
      }
    </style>
  </defs>
  <path class="cls-11" d="M166.9,37.94H1.03c-.41-.53-.83-1.12-.84-1.78-.26-11.46-.26-22.92,0-34.38.01-.66.43-1.25.84-1.78h165.87c.41.53.83,1.12.84,1.78.26,11.46.26,22.92,0,34.38-.01.66-.43,1.25-.84,1.78Z"/>
  <path class="cls-1" d="M3.03,31.95c.02-.35.03-.69.05-1.04.93-1.43.23-3.03.49-4.53.78-1.83.18-4.04,1.52-5.72,1.18-.59,2.21-.16,3.19.5,1.19.81,2.05,2.23,3.78,1.98,1.46-.22.96-1.29.91-2.15-.08-.42-.11-.84-.12-1.27-.01-.88.15-1.74.38-2.58.08-1.31.06-2.5-1.85-1.93-.96-.48-1.17-1.33-1.18-2.29.58-2.05.96-4.33,3.99-3.81,1.45,1.6,2.95,1.03,4.47.08,1.78-.47,3.33-.17,4.51,1.35.69,1.12.51,2.23,0,3.35-.46.92-.87,1.86-.81,2.93.05.77.13,1.53.72,2.13.28.3.53.62.78.95.38.54.62,1.13.63,1.79-.49,1.92.42,3.38,1.57,4.76.53.85.73,1.73.25,2.67-.83.97-1.88,1.38-3.14,1.32-2.28-.46-4.78-4.63-6.74.39-.35.27-.75.41-1.19.45-.84-.22-1.32-.81-1.63-1.54,0,.04-.07-.36-.07-.36,0,0-.38.12-.37.16.45,2.1-.82,2.96-2.48,3.56-2.65.25-5.35.86-7.65-1.14Z"/>
  <path class="cls-18" d="M164.78,34.92c-1.22,1.72-3.04.97-4.59,1-11.85.22-23.76.89-35.54.57-39.31-1.06-78.61-.13-117.91-.55-1.47-.02-3.58.74-3.69-1.99,1.48-.8,3.09-.66,4.68-.6,1.93.32,3.87.17,5.81.18,2.1,0,4.2,0,6.29-.01,1.08,0,2.16,0,3.23,0,2.45.02,4.89.02,7.34,0,.55-.01,1.1-.01,1.65,0,.83,0,1.66,0,2.49,0,2.53.02,5.06,0,7.59-.01,2.3,0,4.6,0,6.9,0,2.63.01,5.26,0,7.88,0,2.35,0,4.69,0,7.04,0,2.64.01,5.28.01,7.91,0,2.63.01,5.26.01,7.89,0,1.47,0,2.94,0,4.41,0,2.97.01,5.93,0,8.9,0,3.61.01,7.22,0,10.84,0,3.61,0,7.23-.03,10.84,0,3.53.02,7.07.02,10.6,0,1.14,0,2.28,0,3.42,0,3.07.24,6.08-.21,9.09-.8.87-.03,1.72.04,2.56.26,5.17,1.13,10.41.28,15.62.52,2.94.32,6.12-.82,8.74,1.42Z"/>
  <path class="cls-26" d="M3.1,3c.63-1.83,2.21-1.13,3.38-1.13,42.32-.03,84.65-.02,126.97,0,.49,0,.99.12,1.48.18.29.65.13,1.17-.46,1.57-3.56,1.49-7.3.53-10.95.83-8.2-.01-16.4,0-24.59,0-9.89-.02-19.77,0-29.66,0-10.23.18-20.47-.46-30.69.36-.62.1-1.24.09-1.86,0-8.55-.84-17.13-.16-25.69-.38-2.13-.06-4.29.2-6.39-.4-.57-.26-1.08-.61-1.53-1.04Z"/>
  <path class="cls-33" d="M164.75,3.93c.02,9,.03,18,.05,27.01-.41.28-.82.29-1.23-.02-.29-.37-.51-.78-.66-1.23-.31-1.38-.5-2.78-.66-4.19-.01-1,.22-1.97.17-2.97-.42-4.66.66-9.35-.43-13.97-4.11-2.3-8.56-.56-12.82-1.13-1.4-.02-2.81.09-4.16-.44-.55-.23-.99-.59-1.33-1.08-.1-.63.11-1.13.63-1.5,6.2-1.74,12.56-.32,18.82-.92.59-.03,1.14.13,1.63.46Z"/>
  <path class="cls-12" d="M164.75,3.93c-.28.01-.56.04-.84.08-.84.62-1.72.44-2.62.17-6.44-.24-12.88-.39-19.33.14-2.39.2-5.01.74-7.03-1.35,0-.31,0-.62,0-.93,8.94-.08,17.88-.16,26.82-.21,1.45,0,3.19-.28,3.01,2.11Z"/>
  <path class="cls-29" d="M163.92,30.96c.29,0,.59-.01.88-.02.01.66.02,1.33.04,1.99-2.67,1.85-5.7.67-8.54,1.01-1.42,0-2.84,0-4.26,0-2.74,0-5.49-.02-8.23.02-1.29-.2-2.58,1.03-3.87-.02l-1.97-.03c-.41-.44-.57-.95-.48-1.54.2-.55.57-.97,1.09-1.24,2.73-.99,5.58-.43,8.37-.61,1.94,0,3.87,0,5.81,0,2.69,0,5.37.02,8.06.02,1.06-.07,2.08.17,3.1.42Z"/>
  <path class="cls-31" d="M23.03,34.92c-1.02,0-2.03,0-3.05,0-2.06-1.03-4.27-.22-6.39-.48-1.64-.37-3.31-.21-4.97-.33-1.71-1.12-3.96.37-5.58-1.15,0-.33,0-.67,0-1,3,0,5.99,0,8.99,0,.46-.31.96-.44,1.52-.38,3.2,1.06,7.11-1.67,9.85,1.85.14.56.02,1.06-.36,1.51Z"/>
  <path class="cls-16" d="M4.12,25.91c-.37,1.66.57,3.6-1.04,5,0-4.65.01-9.29.02-13.94.62-.29,1.11-.15,1.49.42.78,2.89-.02,5.69-.46,8.52Z"/>
  <path class="cls-6" d="M3.93,16.97c-.28,0-.55,0-.83,0,0-4.66,0-9.32,0-13.97.31,0,.62,0,.93,0,.35.41.66.85.93,1.32.31.77.41,1.58.44,2.4.03,3.01.34,6.04-.4,9.02-.23.53-.59.94-1.07,1.25Z"/>
  <path class="cls-4" d="M164.78,34.92c-2.95,0-5.91-.01-8.86-.02-.34-.61-.19-1.06.44-1.36,2.84.08,5.71-.58,8.5.42.08.33.05.65-.08.97Z"/>
  <path class="cls-27" d="M164.86,33.95c-2.98,0-5.96,0-8.95,0-.25-.22-.33-.44-.25-.66.08-.22.17-.33.25-.33,2.97,0,5.95-.01,8.92-.02,0,.34.02.68.02,1.02Z"/>
  <path class="cls-23" d="M3.04,32.95c2,.3,4.23-.77,5.99,1-.66.56-1.32.59-1.99,0-1.33.87-2.66.91-3.99,0,0-.33,0-.67-.01-1Z"/>
  <path class="cls-14" d="M26.01,28.96c-.03-.82-.22-1.56-1-2-.73-1.93-.87-3.96-1-5.99-.33-.33-.67-.67-1-1,.21-.41.49-.76.86-1.04.96-.66,2.05-.96,3.18-1.16,1.88-.41,3.94-.22,5.46-1.74.35-.79.67-1.6,1.33-2.2.48-.71,1.8.83,1.93-.75-.25-.77-.86-1.07-1.55-1.29-.42-.11-.79-.29-1.15-.52-.94-.88-1.05-1.93-.67-3.08.53-1.07,1.37-1.85,2.37-2.48.44-.15.89-.19,1.35-.1,2.05.73,2.48,3.01,4.04,4.2.9.59,1.99.5,2.97.81.61.3,1.06.76,1.38,1.36.23.64.24,1.29.06,1.93-.34.93-.89,1.78-1.06,2.75-.06.72.51.66.98.75,1.02.15,1.91.57,2.66,1.26.45.46.81.98,1.16,1.53.72,1.07,1.82,1.89,2.07,3.23.12.19-.62.56.13.66.67-.54,1.32-.57,1.94.09.88,1.72.15,3.42-.05,5.13-.24.68-.72,1.13-1.36,1.43-1.24.48-2.55.59-3.85.72-1.19-.11-2.39-.35-3.58.09-1.14.18-2.08-.27-2.94-.94-1.73-1.38-2.6.55-3.86,1.01-3.28-.71-6.61.91-9.89-.17-.79-.66-1.4-1.39-.92-2.52Z"/>
  <path class="cls-17" d="M23.02,33.94c-2.96-2.53-7.04.53-10-1.99.46-.74,1.16-1.02,2.01-1,.33,0,.66,0,.99,0,.24-.05.48-.09.73-.14,2.23-.41,4.46-.17,6.68.07,1.06-.15,2.1-.17,3.1.28,3.27.67,6.57,0,9.85.28.56-.07,1.1-.21,1.62-.41,1.17-.25,2.23-.07,3.12.79-.06,2.58-2.08,1.92-3.55,2.1-1.88.22-3.92-.45-5.59.99h-.48s-.48,0-.48,0c-2.45-2.05-5.46.46-7.99-.97Z"/>
  <path class="cls-35" d="M23.02,10.98c-1.54-.94-3.24-1.1-5-1-.65,0-1.3-.06-1.91-.33-1.27-.86-2.52-1.79-4.13-1.97-2.14-.57-4.47.06-6.52-1.07-.49-.32-.7-.78-.63-1.36,4.06-2.49,8.5-.81,12.75-1.15,1.7,2.36,6.39,1.94,5.92,6.33-.16.18-.32.36-.49.54Z"/>
  <path class="cls-1" d="M14.02,16.97c0,1,0,2,0,3-1.03.71-2.59.7-3.03,2.23-.99.23-1.73-.2-2.38-.86-.92-1.06-1.74-2.18-2.28-3.5-.28-.95-.27-1.88.19-2.78.55-.83,1.35-1.28,2.28-1.53.45-.05.89,0,1.3.18.56.77.59,2.17,2.12,1.85.91.07,1.56.49,1.8,1.41Z"/>
  <path class="cls-28" d="M10.02,13.98c-.33,0-.66,0-1,0-.44-.34-.74-.78-.93-1.31-.47-3.72,1.08-5.7,4.92-5.68,1.72-.11,2.62,1.41,4,2-.3,2.42-1.75,1.42-3,1-2.54-.54-2,1.99-3,3-.38.29-.38.95-1,1Z"/>
  <path class="cls-35" d="M22.02,13.98c.33-1,.67-2,1-3,0,0,0,0,0,0,.93-.93,1.63-2.15,2.99-2.55,1.17-.34,2.38-.42,3.17.68.93,1.29.63,2.66-.59,3.51-1.5,1.05-2.88,2.23-4.23,3.46-1.71.34-2.59-.26-2.35-2.1Z"/>
  <path class="cls-14" d="M16.02,30.96c-.44-2.27,1.73-3.3,2.43-5.27,1.59,1.48,3.08,2.87,4.57,4.26-.31.41-.71.7-1.2.85-1.94-.18-3.84,1.02-5.8.15h0Z"/>
  <path class="cls-21" d="M3.93,16.97c.08-.32.14-.64.19-.97,1.68-.38,1.78,1.01,2.25,2,.33,1.34-.5,2.15-1.34,2.96.82,1.86.33,3.47-.91,4.95-.06-2.98-.13-5.96-.19-8.93Z"/>
  <path class="cls-8" d="M5.03,20.96c.33-1,.67-1.99,1-2.99.33-.35.66-.35,1,0,1.31.57,1.98,1.56,2,2.99-.1.57-.43.9-1,1-1-.33-2-.67-2.99-1Z"/>
  <path class="cls-21" d="M24.02,20.97c1.4,1.82,1.7,3.82,1,5.99-1.82-1.75-3.35-3.55-1-5.99Z"/>
  <path class="cls-7" d="M22.02,29.95c.33,0,.66,0,.99,0,1-.33,2-.66,3-.99.33.66.66,1.33,1,1.99-.04.63-.71.62-1.01.99-.99,0-1.98,0-2.98-.01-.57-.54-1.64-.82-1-1.97Z"/>
  <path class="cls-19" d="M8.03,21.96c.33-.33.67-.67,1-1,.67.33,1.33.67,2,1,.64.08,1.08.43,1.37.99.1.42-.02.75-.37,1-2.63,1.93-2.84-.98-4-1.99Z"/>
  <path class="cls-24" d="M12.02,23.96c0-.33,0-.66,0-.99-.81-2.14-.13-2.79,1.99-1.99.37,1.03,1.43,2.03.61,3.17-.82,1.14-1.74.02-2.61-.19Z"/>
  <path class="cls-14" d="M22.02,13.98c.67.67,1.33,1.33,2,2,.38.33.65.74.8,1.22.16,1.05-.19,1.95-.8,2.77-.33,0-.67,0-1,0,0,0,0,0,0,0-1.01-.77-.97-2.24-2-2.99.02-1.1-.13-2.26,1-3Z"/>
  <path class="cls-21" d="M14.02,16.97c-.67-.33-1.33-.67-2-1-.23-.22-.3-.44-.23-.66.07-.22.15-.33.23-.33,1.61-2.44,2.22.85,3.45.6.23,1.2-.67,1.23-1.45,1.39Z"/>
  <path class="cls-21" d="M15.02,30.96c-.45.77-1.19.96-2.01,1-.33,0-.66,0-.99-.02,1.19-1.11-.62-2.98,1-3.99.9-.23,1.38-.05,1,1,.33.67.67,1.34,1,2Z"/>
  <path class="cls-28" d="M14.02,20.97c-1.28.05-1.94.72-1.99,1.99-.33-.33-.67-.67-1-1,.25-1.07-1.27-2.43.07-3.09.64-.32,1.93.69,2.93,1.09,0,.33,0,.67,0,1Z"/>
  <path class="cls-41" d="M14.02,9.98c1.1-.02,2.26.13,3-1,.33.33.67.66,1,1-1.33,2.34-2.66,2.34-4,0Z"/>
  <path class="cls-30" d="M12.02,14.98c0,.33,0,.66,0,1q-1.85.82-2-2c.33-.33.67-.66,1-1,.03.82.23,1.55,1,2Z"/>
  <path class="cls-35" d="M21.02,16.97c1.98.13,2.01,1.54,2,2.99-1.98-.13-2.01-1.54-2-2.99Z"/>
  <path class="cls-30" d="M14.02,28.95c-.33-.33-.67-.67-1-1,.16-.77.34-1.95,1.33-1.37,1.08.64.51,1.66-.34,2.37Z"/>
  <path class="cls-5" d="M64.03,34.91c-2.36,0-4.71,0-7.07,0-1.05-.76-1.91-1.55-.4-2.69,2.83-1.18,5.81-.51,8.72-.72,3.89.01,7.78,0,11.67,0,5.71.35,11.48-.72,17.15.67.53.32.88.77,1.06,1.36-.38,1.12-1.35.83-2.17.91-2.99.27-6.04-.55-8.99.49-1.35,0-2.7,0-4.05,0-2.6-1.03-5.31-.24-7.95-.49-2.65.24-5.36-.52-7.97.48Z"/>
  <path class="cls-13" d="M114.9,34.9c-3.65,0-7.3,0-10.95,0-.24-.25-.32-.51-.26-.77.06-.27.13-.4.2-.4.54-.36,1.24-.06,1.72-.38-1.26-.06-2.66.81-3.88-.41-.11-.5-.03-.95.27-1.37.83-.68,1.82-.88,2.85-.95,1.04-.07,2.08-.07,3.13-.08.79-.03,1.58-.11,2.37-.03,2.39.07,4.78.03,7.17.03.81-.01,1.62,0,2.43,0,1.1,0,2.2,0,3.29.11,1.33.33,2.88.41,2.79,2.39-1.57,1.41-3.51.72-5.28.91-1.62-.12-3.24.27-4.85.06-.61-.08-1.25-.31-1.8-.66.31.5,1.37.62.79,1.56Z"/>
  <path class="cls-13" d="M155.92,32.95c0,.33,0,.66,0,.99,0,.32,0,.64,0,.95-5.32-.46-10.76,1.13-15.98-.96.99-.33,1.98-.66,2.97-1,3,.8,6,.8,9,0,1.33,0,2.67,0,4,0Z"/>
  <path class="cls-31" d="M114.9,34.9c-.62-.44-1.25-.88-2.76-1.95h7.8c1.68,1.61,4.82-1.18,5.98,1.99l-11.03-.04Z"/>
  <path class="cls-34" d="M137.93,32.95c0,.32.02.64.05.96-2.94,1.02-5.97,1.19-9.04,1.02-.65-.88-.55-1.7.22-2.47,3.01-1.28,5.96-1.56,8.78.48Z"/>
  <path class="cls-27" d="M128.93,32.96c0,.66,0,1.32,0,1.98-1,0-2,0-3,0-1.53-2.05-4.45.05-5.98-1.99,2,0,4-.02,6-.03.37-.79.91-1.35,1.86-1.31.62.23,1.01.67,1.12,1.33Z"/>
  <path class="cls-23" d="M31.98,34.91c.43-2.36,2.31-1.84,3.89-1.97,1.74-.15,3.67.6,5.14-.98.46-.36.9-.34,1.32.08.22.47.28.96.18,1.47-.19.51-.55.81-1.09.9-2.44.35-4.97-.55-7.36.51-.69,0-1.38,0-2.08,0Z"/>
  <path class="cls-42" d="M23.02,33.94c2.64.55,5.73-2.67,7.99.97-2.66,0-5.32,0-7.98,0,0-.32,0-.65,0-.97Z"/>
  <path class="cls-13" d="M103.95,33.95c0,.32,0,.64,0,.95-3.67,0-7.33,0-11,0-.34-.21-.46-.42-.34-.63.11-.21.23-.31.34-.31.67,0,1.33,0,2-.01,3-2.55,6-.97,8.99,0Z"/>
  <path class="cls-13" d="M42,33.95c0-.33,0-.67,0-1,1.84-1.12,3.8-.85,5.78-.53.66.24,1.15.68,1.5,1.29.15.46.04.85-.3,1.19-2.33,0-4.66,0-6.99,0-.37-.21-.49-.42-.37-.63.12-.21.24-.32.37-.32Z"/>
  <path class="cls-42" d="M48.99,34.9c0-.31,0-.63,0-.94,1.53-1.77,3.7-1.22,5.63-1.56.52.02.98.2,1.37.55.32.65.65,1.31.97,1.96-2.66,0-5.32-.01-7.98-.02Z"/>
  <path class="cls-13" d="M92.96,33.96c0,.32,0,.63,0,.95-2.99,0-5.97,0-8.96.01,2.81-1.93,5.98-.57,8.96-.96Z"/>
  <path class="cls-31" d="M71.97,33.95c2.65.4,5.52-.96,7.98.97-2.66,0-5.33,0-7.99-.01-.33-.22-.44-.43-.33-.64.11-.21.23-.32.34-.32Z"/>
  <path class="cls-15" d="M7.04,33.95c.66,0,1.32,0,1.99,0,1.34-.9,2.67-.89,4,0,.34.21.45.42.34.63-.11.21-.22.32-.34.32-2.01-.26-4.23.8-5.99-.96Z"/>
  <path class="cls-13" d="M42,33.95c0,.32,0,.63,0,.95-2.65,0-5.3,0-7.95.01,2.46-1.92,5.31-.55,7.95-.96Z"/>
  <path class="cls-13" d="M71.97,33.95c0,.32,0,.64,0,.96-2.64,0-5.29,0-7.93,0,2.45-1.91,5.3-.56,7.94-.96Z"/>
  <path class="cls-13" d="M13.03,34.91c0-.32,0-.63,0-.95,2.31.35,4.85-.88,6.95.96-2.32,0-4.63,0-6.95,0Z"/>
  <path class="cls-36" d="M134.93,2.97c7.43,0,14.86-.01,22.28.05,1.59.01,3.34-.54,4.66.94-11.84.39-23.64,1.98-35.52,1.32-.66-.04-1.29-.3-1.88-.61-.64-.4-.82-.95-.53-1.64,3.66-.02,7.33-.04,10.99-.06Z"/>
  <path class="cls-9" d="M4.05,4.07c0-.36-.01-.72-.02-1.08,9.25,0,18.5-.03,27.75.03,1.75.01,3.67-.62,5.18.9-.22.21-.45.43-.67.64-5.8,1.35-11.6,1.29-17.42.1-4.92-.66-9.92.45-14.83-.59Z"/>
  <path class="cls-20" d="M36.96,3.93c.38,0,.75,0,1.13,0,9.69-.93,19.41-.19,29.11-.38.73.09,1.02.5.88,1.22-3.25,3-7.29,1.06-10.91,1.73-1.9.34-3.8.61-5.71.05-1.84-.21-3.69-.11-5.54-.13-2.41-.07-4.82.13-7.22-.22-.54-.13-1.03-.36-1.48-.69-.47-.43-.53-.91-.19-1.44l-.07-.13Z"/>
  <path class="cls-9" d="M67.98,4.08c-9.96-.05-19.93-.11-29.89-.16,2.71-1.9,5.76-.81,8.63-.87,7.42-.16,14.85-.03,22.27-.02.25.21.35.45.31.7-.04.26-.1.39-.17.39-.39.24-.78.22-1.15-.04Z"/>
  <path class="cls-37" d="M68.99,3.91c0-.29,0-.59,0-.88,9.99,0,19.97,0,29.96,0,.29.7.11,1.24-.53,1.63-9.1,1.54-18.25.68-27.39.48-.84-.02-1.52-.56-2.04-1.23Z"/>
  <path class="cls-9" d="M98.95,3.88c0-.29,0-.57,0-.86,8.33,0,16.66,0,24.99,0,0,.3,0,.6,0,.9-1.02,1.36-2.52,1.39-4.01,1.48-5.66.15-11.33-.23-16.99.24-.82.25-1.65.28-2.48.05-.85-.31-1.38-.89-1.52-1.8Z"/>
  <path class="cls-14" d="M163.88,6.99c0,5.66,0,11.31,0,16.97-1.6.68-3.3,2.83-4.63-.32-.1-1.28.25-2.62-.41-3.83-.04-.07.1-1.4-.59-.29-.16.26-.21.59-.52.8-.96.36-1.71.07-2.32-.68-.46-.35-.25-1.5-1.35-1.1-.28.28-.56.51-.85.75-4.82,1.95-4.24-1.86-4.8-4.47.25-1.17,1.12-1.88,1.97-2.6,1.8-1.8,3.75-1.84,5.82-.51,1.26-1.14,4.39,2.98,4.37-1.6-.07-1.58.9-2.51,2.09-3.29.45-.22.85-.18,1.22.17Z"/>
  <path class="cls-1" d="M144.92,5.99c1.33,0,2.66,0,4,0,.55.52.68,1.16.52,1.88-.29,1.69-3.27,1.84-2.36,4.19.21.38.37.77.51,1.18.18.64.18,1.27,0,1.9-1.35,1.45-1.49,3.36-1.94,5.17-.32.63-.82,1.08-1.49,1.32-1.52.36-2.67-.44-3.84-1.2-.64-.29-1.22-.66-1.74-1.13-.65-.7-1.09-1.5-1.31-2.43-.1-.69,0-1.34.4-1.92.98-.59,1.86-.26,2.68.28.41.47-.45.4.18.2.31-.1.2-.38-.2-.42-.67-.63-1.42-1.12-2.15-1.63-1.14-.99-2.66-1.69-2.71-3.51.54-1.76,1.91-1.57,3.27-1.41,1.05.19,2.04.04,2.96-.53,1-.78,2.35-.96,3.23-1.93Z"/>
  <path class="cls-21" d="M159.91,22.96c.69,2.85,2.76.22,3.97.99-.32.68-.65,1.35-.97,2.03.46.66.1,1.15-.32,1.64-.58.52-1.29.85-1.91,1.28-.61.92.36,1.06.76,1.48.47.43.84.88.47,1.56-3,0-6,0-9,0-.3-.22-.42-.52-.37-.88-.41-.95-.99.12-1.46-.11-.88.02-1.78.66-2.59-.16-.54-.92-.5-1.85-.08-2.79.97-1.44,2.47-2.18,3.94-2.96,1.46-.53,1.51-2.07,2.26-3.11.93-1.31,2.08-2.24,3.53-.52-.11.27-.23.54-.39.79-.18.27-.39.65-.31.7.32.21.18.11.11-.28-.12-.63.06.28.17-.4.27-.33.6-.52,1.02-.57.67.21,1.05.66,1.18,1.33Z"/>
  <path class="cls-7" d="M119.94,4.1c1.33-.06,2.67-.12,4-.18,12.64.01,25.29.02,37.93.03.68.02,1.36.04,2.04.06-6.57,2.22-13.34.35-19.99,1-2.42,2.12-5.39,1.14-8.13,1.43-.53.05-1.08.07-1.61.07-1.54-.16-3.1-.13-4.65-.12-.74.02-1.49.03-2.24.07-2.48.19-4.93.23-7.2-1.04-.26-.26-.37-.55-.33-.85.04-.31.1-.46.18-.46Z"/>
  <path class="cls-1" d="M148.92,7.99v-2c4.97.57,10.1-1.2,14.97,1-.33,0-.65,0-.98,0-.63,1.36-2.1,1.22-3.18,1.78-1.06,1.22-1.55,3.23-3.84,2.7-1.17-2.94-4.02-1.68-6.07-2.42-.39-.28-.69-.64-.9-1.07Z"/>
  <path class="cls-41" d="M159.91,27.96c.67-.33,1.33-.67,2-1,1.08.72,1.14,2.11,1.99,2.99,0,.34.02.68.02,1.02-.45.77-1.19.96-2.01.97-.33-.33-.67-.66-1-.99-1.09-.75-2.14-1.5-1-2.99Z"/>
  <path class="cls-39" d="M134.94,5c2.99,0,5.99,0,8.98.01,0,.33,0,.65,0,.98-.34.44-.76.76-1.28.96-.78.28-1.59.37-2.41.4-1.95-.35-4.63.91-5.29-2.35Z"/>
  <path class="cls-1" d="M142.92,6c.33,0,.67,0,1,0,.33,0,.67,0,1,0-.07,1.93-1.71,2.28-3,2.99-1.08-1.47-.12-2.26,1-2.99Z"/>
  <path class="cls-32" d="M163.9,29.94c-1.31-.56-1.97-1.56-1.99-2.99.33-.33.67-.65,1-.98,1.41,1.05.87,2.59.99,3.97Z"/>
  <path class="cls-14" d="M152.92,30.95c0,.33,0,.66,0,.98-2,0-4,0-6,0-1.44-.81-3.11-.56-4.64-.97-1.44-.09-2.9.14-4.31-.36-.69-.35-1.21-.86-1.59-1.53-.41-.94-.42-1.87.03-2.8,1.94-1.67,5.45.16,6.71-3.03.3-.35.67-.61,1.1-.8.71-.17,1.36-.07,1.94.38.4.57.53,1.2.5,1.88-.12,1.16-.61,2.33.18,3.45.78.87,1.41,1.86,2.08,2.8.67-.33,1.34-.66,2-1,.48.69,1.54.26,2,1Z"/>
  <path class="cls-28" d="M136.93,28.95c.33.33.67.66,1,1,1.66.91,3.33.73,4.99,0,1.33.66,2.66,1.32,3.99,1.98-3,0-5.99.02-8.99.02-1.44.92-3.02.33-4.54.43-.55-.18-.81-.56-.77-1.14,1.04-1.5,2.29-2.62,4.31-2.29Z"/>
  <path class="cls-38" d="M132.93,31.92c1.67.01,3.33.03,5,.04,0,.33,0,.66,0,.99-3,0-5.99,0-8.99,0-.34-.32-.68-.64-1.02-.96,1.65-1.59,3.32-1.36,5.01-.07Z"/>
  <path class="cls-34" d="M151.91,32.95c-3,1.58-6,1.59-9,0,3,0,6,0,9,0Z"/>
  <path class="cls-21" d="M7.03,17.97c-.33,0-.66,0-1,0-.64-.65-1.28-1.31-1.91-1.96-.01-3.33-.02-6.67-.03-10,.3-.51.61-.49.93-.02.34,0,.68,0,1.01,0,2.59,2.03,2.11,4.57,1.2,7.18-.04.6-.15,1.2-.2,1.8,0,1,0,2,0,2.99Z"/>
  <path class="cls-10" d="M5.02,5.99c-.31,0-.62,0-.93.02-.01-.65-.03-1.29-.04-1.94,4.99.01,9.99.02,14.98.04.11.15.23.3.34.45-.12.15-.23.29-.35.44-4.66.49-9.46-1.11-14,.99Z"/>
  <path class="cls-1" d="M50.99,29.95l1-1c.16-.16.32-.32.47-.49,2.72-.26,4.75-2.28,7.34-2.87,1.19.47,2.36.63,3.45-.26.89-.32,1.75-.32,2.59.14,1.29,1.34,1.33,3.32,2.44,4.77-.06,1.16-.72,1.82-1.78,2.16-.82.04-1.63.04-2.46.04-4.3-.3-8.61.52-12.91-.1-.71-.75-.79-1.55-.15-2.38Z"/>
  <path class="cls-1" d="M52,23.96c-.67.33-1.33.66-2,1-.26-.22-.34-.44-.26-.66.08-.22.17-.33.25-.33-1-1-2-2-3-3,.63-.57,1.12-1.3,1.82-1.8,1-.6,1.41-1.5,1.39-2.64.11-.96.49-1.76,1.3-2.33.84-.5,1.7-.82,2.66-.32.46.57.61,1.24.61,1.95-.91,3.24,1.62,3.56,3.67,4.3.38.68.48,1.4.4,2.16-.57,2.33-1.87,3.78-4.46,3.61-1.19-.16-1.81-1.02-2.39-1.93Z"/>
  <path class="cls-28" d="M44,11.98c-.33-.33-.67-.67-1-1-.28-1.79.17-3.27,1.77-4.28.45-.13.9-.12,1.35.03,1.29,2,4.15,2.76,4.42,5.58-.12.46-.38.82-.76,1.1-1.15.48-2.28.17-3.41-.09-.95-.16-1.72-.65-2.37-1.34Z"/>
  <path class="cls-35" d="M45,6.99c-.67,1.33-1.33,2.66-2,3.99-1,.3-2,1.51-3,0-.58-.59-.65-1.28-.41-2.03.99-1.5,2.16-2.74,4.15-2.69.49.11.91.36,1.25.73Z"/>
  <path class="cls-33" d="M26,31.94c.34-.33.67-.66,1.01-.99,1.5-.52,3.68,1.27,4.56-1.49.42-1.3,1.13-.87,1.55.17.79,1.94,2.51,1.11,3.89,1.32.25.21.33.43.25.65-.08.22-.16.33-.24.33-3.67,0-7.35,0-11.02,0Z"/>
  <path class="cls-8" d="M34.01,16.97c-1.89,2.21-4.63,1.43-6.99,2-.33-.36-.44-.77-.32-1.25.92-1.76,2.39-2.76,4.32-3.15,1.67-.03,2.02,1.58,3,2.41Z"/>
  <path class="cls-30" d="M34.01,10.98c.33,0,.67,0,1,0,1.01.32,1.23,1.43,2,2-.22.87.98,2.21-.14,2.5-.78.2-1.89-.95-2.86-1.5-1.18.18-2.29.08-3.18-.85-.17-.44-.16-.88.04-1.32.84-1.06,2.2-.14,3.14-.83Z"/>
  <path class="cls-41" d="M44,11.98h3c.46,1.57,1.1,3.13.41,4.81-.31.4-.71.65-1.21.76-1.96-.43-3.3-1.25-2.2-3.57,0-.67,0-1.33,0-2Z"/>
  <path class="cls-8" d="M34.01,10.98c-.73,1.13-1.9.97-3,1-2.31-.14-1.22-1.85-1.38-2.98.82-1.36,1.85-2.01,3.37-1.01.03,1.1-.13,2.26,1,2.99Z"/>
  <path class="cls-28" d="M44,13.98c.11,1.89,1.11,2.89,3,2.99.5.43.58.97.4,1.57-.13.14-.27.28-.4.43-1-.33-2.01-.66-3.01-.99-1.04.37-1.22-.1-.99-.99-.76-1.36-.58-2.42,1-3Z"/>
  <path class="cls-14" d="M40,8.99c0,.67,0,1.33,0,2-2.71-.57-2.34-3.58-4-4.99.51-.65,1.24-.47,1.91-.48.48,0,.92.11,1.35.33.89.9,1.44,1.88.74,3.15Z"/>
  <path class="cls-14" d="M31.01,12.98c1.1.02,2.26-.13,3,1,0,1,0,2,0,3-1.52.12-1.98-1.36-2.99-1.99-.3-.27-.48-.6-.53-1,.05-.4.22-.73.53-1Z"/>
  <path class="cls-25" d="M38,5.99c-.67,0-1.33,0-2,0,0,0-.5,0-.5,0h-.5c-1.43,2.02-3.09,1.03-4.72.35-.5-.7-.84-1.38.31-1.79,2.14.15,4.33-.52,6.41.44.33,0,.67,0,1,.01.35.22.46.44.35.66-.11.22-.23.33-.34.33Z"/>
  <path class="cls-35" d="M52,23.96c.66.33,1.33.66,1.99,1,1.79,2.56-.22,3.22-2,3.99,0,0,0,0,0,0-1.73-1.66.65-3.32,0-4.99Z"/>
  <path class="cls-33" d="M38.18,25.67c-1.6.69-2.26,2.03-3.69,1.6-.17-.05-.32-.97-.14-1.31.7-1.31,1.83-1.05,3.83-.29Z"/>
  <path class="cls-14" d="M31.01,6c1.33.05,2.67.93,4,0-.06,1.28-.72,1.94-2,2-1,.33-2,.67-3,1-1.07-1.46-.28-2.31,1-2.99Z"/>
  <path class="cls-20" d="M37.02,31.93c0-.33-.01-.65-.02-.98.93-1.94,1.79-4.14,3.99-1-.32,1.69-2.12,1.15-3.01,1.98-.32,0-.65,0-.97,0Z"/>
  <path class="cls-33" d="M37.99,31.93c1-.66,2-1.32,3.01-1.98,1,.33,2,.66,3,1,.26.44.24.87-.06,1.29-.71.32-1.37.3-1.94-.29h-.5s-.5,0-.5,0c-1,0-2.01-.01-3.01-.02Z"/>
  <path class="cls-2" d="M50.99,29.95c0,.66,0,1.32,0,1.98-1.12,1.32-2.46.63-3.75.41-.49-.39-.57-.85-.24-1.38,1.06-1.41,2.61-.88,4-1Z"/>
  <path class="cls-19" d="M46.99,30.95c0,.33.01.65.02.98-1,.77-2.01.7-3.01,0,0-.33,0-.66,0-.99,1-3.65,2-.22,3,0Z"/>
  <path class="cls-8" d="M27.01,17.97c0,.33,0,.66,0,1-1,.33-2,.67-3,1,0-1,0-2,0-2.99.57-.55,1.25-.76,2.03-.63.73.3,1.3.7.97,1.63Z"/>
  <path class="cls-21" d="M37,12.98c-1.28-.06-1.94-.72-2-2,2.63-1.3,1.71.95,2,2Z"/>
  <path class="cls-7" d="M28.07,22.47c-.43.4-.75.69-1.06.99-.28-.33-.77-.66-.77-.99,0-.33.5-.66.78-.99.31.29.63.59,1.06.99Z"/>
  <path class="cls-21" d="M37.65,16.92c.34.46.59.8.84,1.14-.36.24-.74.68-1.08.66-.32-.02-.6-.55-.9-.85.33-.28.66-.55,1.15-.95Z"/>
  <path class="cls-20" d="M49,19.97c-.45.77-1.18.97-2,1,0-.67,0-1.33,0-2,0,0,0,0,0,0,.43-.66.99-1.41,1.81-.96.74.4.8,1.24.19,1.96Z"/>
  <path class="cls-40" d="M43,16.98c.33.33.66.66.99.99-.7.85-1.73,1.41-2.36.33-.58-.99.6-1.18,1.37-1.33Z"/>
  <path class="cls-21" d="M49.99,23.96c0,.33,0,.66,0,1-.43.42-.85.85-1.31,1.23-.02.02-.53-.35-.54-.55-.07-1.28.83-1.55,1.85-1.67Z"/>
  <path class="cls-28" d="M22.02,29.95c.33.66.67,1.31,1,1.97-2.34-.32-4.89.89-7.01-.97,2-.35,3.89-1.34,6.01-1Z"/>
  <path class="cls-1" d="M26.01,16.97c-.67,0-1.33,0-2,0,0-.33,0-.67,0-1,.1-1.87,1.22-3.04,2.79-3.77,1.05-.49,2.61-.8,1.81-2.26-.93-1.69-2.2-.47-3.33.18-.69.4-1.51.58-2.27.85.06-1.61-.24-2.89-2.26-3.03-1.88-.13-2.65-1.09-1.73-2.96,0,0,0,0,0,0,.58-.6,1.29-.47,2-.35,2.57.57,5.15.46,7.73.11.48-.16.91-.08,1.28.26.33.33.65.66.98.99-.33,1-.66,1.99-1,2.99.02,1.1-.13,2.26,1,2.99,0,.33,0,.66,0,1,0,.33,0,.67,0,1-1.65,1.02-3.47,1.76-4.99,2.99Z"/>
  <path class="cls-1" d="M6.03,13.98c.05-2.66,1.78-5.32,0-7.99,2.33.37,4.88-.88,6.99,1-2.27,1.37-4.63,2.68-4,5.99-.79.95-1.88,1.01-3,1Z"/>
  <path class="cls-30" d="M6.03,13.98c.73-1.13,1.9-.98,3-1,0,.33,0,.67,0,1-.45.77-1.18.97-2,1-.33-.33-.67-.67-1-1Z"/>
  <path class="cls-13" d="M44,31.93c1,0,2.01,0,3.01,0,1.33,0,2.65,0,3.98,0,4.67,0,9.33.02,14,.03.34.22.46.44.34.66-.12.22-.23.33-.35.33-2.99,0-5.99,0-8.98,0-.34,0-.68,0-1.02,0-2.32.76-4.65.76-6.97,0-2,.59-4,.6-6.01,0,0-.33,0-.67,0-1,.67,0,1.33-.01,2-.02Z"/>
  <path class="cls-4" d="M94.96,32.95c-5.99,0-11.98-.01-17.97-.02-.33-.56-.24-1.05.26-1.47,2.03-1.29,4.31-.79,6.51-.93,1.84,0,3.67.02,5.51.02,1-.03,2,0,3,.11.74.05,1.45.22,2.11.54.42.26.71.62.86,1.09-.09.22-.18.44-.28.66Z"/>
  <path class="cls-5" d="M103.95,33.95c-3,0-6,0-8.99,0,0-.33,0-.66,0-1,0,0,0,0,0,0,2.33-1.8,4.66-1.8,6.99,0h5.07c-.9,1.58-2.13.74-3.07,1.01Z"/>
  <path class="cls-31" d="M76.97,31.96c0,.32.01.65.02.97-4,0-8.01,0-12.01.01,0-.33,0-.66,0-.99.67,0,1.33,0,2,0,3.33-1.95,6.66-2.38,9.99.01Z"/>
  <path class="cls-1" d="M132.93,31.92c-1.67.02-3.34.05-5.01.07-.65.31-1.31.63-1.96.94-.75-1.12-1.92-.96-3.02-.99-.53-.49-.69-1.11-.61-1.8.56-1.53.69-3.17,1.12-4.68.24-.12.34-.33.28-.57-.2.24-.44.28-.76.13-.7-.6-.79-1.36-.68-2.19.26-.93.94-1.45,1.75-1.86,1.47-.38,2.14-1.99,3.62-2.37.86-.02,1.61.32,2.34.7,1.45.72,2.7-.45,4.08-.44.94-.05,1.83.1,2.66.57.63.47.85,1.11.84,1.86-.08.46-.27.88-.54,1.25-.8.91-2.39,1.11-2.45,2.7-.29,1.23-.49,2.45-.2,3.71,0,1.02-.77,1.48-1.44,2,0,.32,0,.65,0,.97Z"/>
  <path class="cls-1" d="M109.95,31.93c-.67,0-1.34,0-2,0-.77-.78-.91-1.71-.6-2.73.79-1.66,2.14-2.51,3.94-2.71.92.03,1.56.59,2.2,1.14.61.48,1.32.7,2.1.74,1.03.11,2.05.27,3.06.52.67.2,1.25.52,1.67,1.11.26.72.19,1.37-.37,1.92-.67,0-1.34,0-2.01,0-2.66-.81-5.32-.81-7.99,0Z"/>
  <path class="cls-41" d="M107.95,28.95c0,1,0,1.99,0,2.99-1,0-2,0-3,.01-1.54-1.09-3.75-.04-5.16-1.59-.3-.36-.5-.77-.63-1.22-.11-.69-.02-1.34.32-1.95,1.08-.98,2.37-.63,3.61-.56,1.23.67,2.4,1.47,3.85,1.63.19.08.38.16.57.24.15.15.29.3.43.44Z"/>
  <path class="cls-28" d="M99.96,29.95c1.76.42,3.6.66,5,2-1,0-2,0-3,0-2.33.78-4.66.76-7,0-.67,0-1.33,0-2-.01-.56-1.1.09-1.74.87-2.34.44-.17.9-.24,1.37-.23,1.57.26,3.19.2,4.75.58Z"/>
  <path class="cls-21" d="M109.95,31.93c2.66-1.51,5.32-1.51,7.99,0-2.66,0-5.32,0-7.99,0Z"/>
  <path class="cls-29" d="M94.96,31.96c2.33,0,4.66,0,7,0,0,.33,0,.66,0,.99-2.33,0-4.66,0-6.99,0,0-.33,0-.66,0-.99Z"/>
  <path class="cls-32" d="M119.95,31.93c0-.66,0-1.32,0-1.98.31-.36.69-.59,1.15-.71.73-.06,1.37.12,1.85.71,0,.66,0,1.32,0,1.98-1,0-1.99,0-2.99,0Z"/>
  <path class="cls-3" d="M48.01,32.95c2.32,0,4.65,0,6.97,0-1.75,1.78-3.99.67-5.99,1.01-.33-.33-.65-.67-.98-1Z"/>
  <path class="cls-32" d="M21.02,5c-.67,0-1.34,0-2.01,0,0-.29,0-.59,0-.88,6-.02,12-.04,18.01-.06-.01.31-.02.62-.03.94-2.33,0-4.65.02-6.98.02-.35,0-.69,0-1.04,0-2.66.76-5.31.78-7.97-.01Z"/>
  <path class="cls-14" d="M50,12.98c.22-3.03-4.76-2.6-4-5.99-.25-.22-.36-.46-.32-.72.04-.27.09-.41.16-.41,2.04-.31,4.29.84,6.14-.85,1.35.86,2.69.88,4.04,0,.92.9,2.19.24,3.22.7,1.19.5,2.98.2,2.98,2.26-.93,1.23-2.23,1.53-3.66,1.45-.78-.66-1.54-1.05-2.02.35-1.22,1.18-1.1,3.17-2.53,4.2-.67.33-1.33.67-2,1-.7-.63-1.74-.92-2-2Z"/>
  <path class="cls-2" d="M98.95,3.88c.36.35.73.71,1.09,1.06-3.3,2.76-7.33.77-10.9,1.69-.48.15-.98.21-1.47.22-1.39-.17-2.79-.35-4.21-.27-1.92-.29-3.85-.18-5.78-.19-2.04,0-4.08,0-6.12-.03-1.08-.01-2.1-.2-3.03-.79-.18-.2-.36-.4-.53-.6,0-.3,0-.6,0-.9.34-.06.67-.11,1.01-.17,9.99,0,19.97-.02,29.96-.03Z"/>
  <path class="cls-24" d="M58.99,5.99c-1.1-.03-2.26.13-2.99-.99,3.99,0,7.99-.01,11.98-.02,0,0,0,.01,0,.01.31.62.19,1.13-.37,1.55-2.99,1.69-5.78.06-8.63-.55Z"/>
  <path class="cls-24" d="M46,5.99c0,.33,0,.67,0,1-.33,0-.67,0-1,0-.33,0-.66,0-1,0-1.49-1.22-3.63.84-5-.99-.33,0-.67,0-1,0,0-.33,0-.66,0-.99,2.67,0,5.33.01,8,.02.35.22.46.43.34.65-.12.21-.23.32-.35.32Z"/>
  <path class="cls-22" d="M46,5.99c0-.32,0-.65,0-.97,1.99,0,3.98,0,5.96,0-1.57,2.87-3.75,2.06-5.97.98Z"/>
  <path class="cls-7" d="M119.94,4.1c0,.29,0,.58,0,.87-3.19,2.58-6.96,1.01-10.45,1.46-2.34-.16-4.76.38-6.97-.85-.2-.22-.39-.44-.59-.67,5.93-1.91,12.01-.53,18.01-.81Z"/>
  <path class="cls-39" d="M87.98,5.99c3.87-2.09,8.06-.45,12.06-1.05.63-.01,1.26-.02,1.89-.03,0,0,.03.12.03.12.29.43.31.85,0,1.28-.36.31-.77.55-1.22.73-2.74.93-5.55.17-8.32.38-1.68.14-3.36.27-4.44-1.43Z"/>
  <path class="cls-14" d="M158.91,21.96c-.33,0-.67,0-1,0h0c-2.36-1.4-3.07.16-2.78,1.95.36,2.22-.87,2.04-2.22,2.04-1.63-1.01-3.88-.27-5.29-1.89-.76-1.54-.28-2.84.8-4.01,1.98.35,4.26,1.34,4.5-2.09.33,0,.67,0,1,0,.89-.1,1.45.42,2,1,.45.77,1.18.97,2,1,1.89-.11,1.5.91,1,2Z"/>
  <path class="cls-28" d="M152.91,17.97c-.06,1.6.06,3.43-1.68,4.1-.44.17-1.53-1.36-2.32-2.1-.76.77-1.52,1.53-2.75,1.38-.7-.2-.91-.85-1.25-1.38.11-1.89-.75-4.16,2-4.99.67-.58,1.33-.63,2,0,1.52.76-.16,5.76,4,3Z"/>
  <path class="cls-28" d="M155.91,10.98c2.73-.03,1.38-3.13,3-3.99,1,.77,1.25,2.05,2,3,1.71.24,2.26,1.28,1.72,2.82-.5,1.43-1.85,1.21-2.96,1.1-1.28-.13-2.29-1.47-3.76-.92-.56-.67-.64-1.33,0-2Z"/>
  <path class="cls-21" d="M155.91,10.98v2c-1.67-1.62-3.33-1.62-5,0-.44-.23-.81-.54-1.11-.94-.8-1.37-1.1-2.74.12-4.06,1.95,1.09,5.57-1.14,5.99,2.99Z"/>
  <path class="cls-8" d="M158.91,21.96c-.03-.82-.23-1.55-1-2-1.16-1.9-.86-3.36,2.59-4.9-3.51,3.29,2.27,5.16-.59,7.9-.33-.33-.67-.67-1-1Z"/>
  <path class="cls-8" d="M160.91,9.98c-1.98-.13-2.01-1.54-2-3,1.33.06,2.66.93,3.99,0,.12,1.52-1.36,1.98-2,2.99Z"/>
  <path class="cls-41" d="M150.92,11.98c0,.33,0,.67,0,1-.67.67-1.33,1.33-2,2-.67,0-1.33,0-2,0,0-.66,0-1.33,0-1.99.36-.58.9-.89,1.52-1.12.84-.26,1.67-.33,2.48.12Z"/>
  <path class="cls-21" d="M155.91,18.97c-.82-.03-1.55-.23-2-1,.08-.78-.14-2.21.59-2.13,1.78.19,1.27,1.91,1.41,3.13Z"/>
  <path class="cls-14" d="M134.94,5c1.76,1.76,3.99.69,5.99.99.68,2-.97,2.85-2,4-1-.3-2-1.51-3,0-.51,1.31-1.53,1.92-2.87,2.09-.77.09-1.52.03-2.27-.19-.5-.16-.93-.42-1.32-.77-1.02-1.27-1.6-2.63-.94-4.27,1.29-2.1,3.77-.71,5.39-1.85.34,0,.68,0,1.02,0Z"/>
  <path class="cls-1" d="M140.92,18.97c1.02.64,1.48,2.11,3,2,.62.67.58,1.33,0,2h0c-1.27,1.51-2.27,3.52-4.85,2.58-1.18-.91-2.56-1.7-2.14-3.57h0c1.05-1.38,2.91-1.67,4-3Z"/>
  <path class="cls-1" d="M150.92,11.98c-.67.33-1.33.66-2,1-1-1.25-2-1.25-3,0-2.95-4.03,1.26-3.77,3-4.99.33,0,.67,0,1,0-.14,1.45.32,2.75,1,3.99Z"/>
  <path class="cls-20" d="M136.93,19.97c-1,0-2,0-2.99,0-.37-.41-.61-.88-.72-1.41-.03-.86.22-1.59.94-2.12,1.38-.7,2.63-.47,3.77.53.77.45.97,1.18,1,2-.39.89-.89,1.55-2,1Z"/>
  <path class="cls-21" d="M132.93,10.98c1-.33,2-.67,3-1,1,1,2,2,3,2.99-.54.7-1.32.96-2.14,1.15-1.43.21-2.78.09-3.95-.87-.48-.78-.5-1.54.1-2.28Z"/>
  <path class="cls-41" d="M138.93,9.98c-.11-1.72,1.42-2.62,2-4,.67,0,1.33,0,2,0-.33,1-.66,1.99-1,2.99-.73,1.13-1.9.97-3,1Z"/>
  <path class="cls-28" d="M136.93,19.97c.67-.33,1.33-.67,2-1,.67,0,1.33,0,2,0-.16,2.55-1.85,3.08-4,2.99,0-.66,0-1.33,0-1.99Z"/>
  <path class="cls-41" d="M136.93,12.98c.67,0,1.33,0,2,0,1.28.06,1.94.72,2,2,.26.22.34.44.26.67-.09.22-.17.33-.26.33-1-.33-2-.67-3-1-.42.32-.84.31-1.26-.02-.35-.71-.32-1.38.26-1.97Z"/>
  <path class="cls-19" d="M145.92,12.98c.16-1.18-.28-2.9,1.73-2.7,1.54.16,1.14,1.65,1.27,2.7-.67,0-1.33,0-2,0-.33,0-.67,0-1,0Z"/>
  <path class="cls-14" d="M136.93,14.98c.33,0,.67,0,1,0v2c-1.33,0-2.66,0-4,0-.67-3.16,1.01-2.81,3-2Z"/>
  <path class="cls-28" d="M140.92,15.97c0-.33,0-.66,0-1,1.07.2,2.4.11,2.28,1.74-.02.33-.62.84-.98.87-1.07.08-1.18-.81-1.3-1.61Z"/>
  <path class="cls-20" d="M143.92,22.96c0-.67,0-1.33,0-2,.33-.33.67-.67,1-1,.33.33.67.67,1,1,.63.67.53,1.33,0,1.99-.67,0-1.33,0-2,0Z"/>
  <path class="cls-41" d="M147.92,23.96c1.77.39,4.32-1.14,5,2-1.37.59-2.28,2.11-4,2-.86.76-1.69,1.6-3,1-1.38-1.33-1.38-2.66,0-3.99.76-.14,1.23-.88,2-1Z"/>
  <path class="cls-20" d="M152.92,30.95c-.82-.03-1.55-.23-2-1,1.35-.53,2.7-1.07,4.36-1.72.46,2.15-.87,2.5-2.37,2.72Z"/>
  <path class="cls-20" d="M159.91,27.96c.33,1,.67,2,1,2.99-1.06-.11-2.43.26-2.74-1.25-.26-1.27.74-1.58,1.75-1.74Z"/>
  <path class="cls-21" d="M145.92,28.95c1-.33,2-.66,3-1v2.99c-1-.67-2-1.33-3-2Z"/>
  <path class="cls-14" d="M157.91,21.96c.06,1.12.12,2.24.2,3.56-1.91-1.27-1.25-2.41-.2-3.56h0Z"/>
  <path class="cls-28" d="M108.95,5c3.66,0,7.33-.02,10.99-.02,2.33-.44,4.66.97,6.99.02,1.6,2.17,1.04,3.86-1.15,5.19-.94.41-1.83.24-2.67-.27-.8-.58-1.58-1.22-2.62-1.36-.78-.17-1.51-.48-2.27-.7-2.85.37-1.76,3.44-3.26,4.72-2.53,1.43-4.08.77-4.57-2.13.28-1.24,1.52-2.67-.68-3.44-.38-.22-.7-.5-.98-.84-.19-.44-.1-.82.23-1.16Z"/>
  <path class="cls-1" d="M124.94,9.98c1.61-1.29,2.33-2.93,2-4.99.67,0,1.34,0,2.01,0,.58.66.58,1.32,0,1.98.33,1.33.66,2.67,1,4,.59,1.08-.06,1.75-.77,2.4-1.41.73-2.73.54-3.98-.4-.34-.32-.61-.7-.79-1.14-.16-.72-.06-1.37.54-1.87Z"/>
  <path class="cls-39" d="M128.94,6.98c0-.66,0-1.32,0-1.98,1.66,0,3.32,0,4.97,0-1.31,1.54-3.54.77-4.98,1.98Z"/>
  <path class="cls-28" d="M138.92,24.96c2.17.61,3.11-1.88,5-1.99-.73,4.73-3.6,4.49-7,3-1.1.89-1.23,2.76-3,2.99-2.98-1.33-.44-2.66,0-3.99,1.66-1.5,3.33-1.21,4.99,0Z"/>
  <path class="cls-35" d="M147.92,23.96c-.21,1.24-.43,2.47-2,1,0-.67,0-1.33,0-2,0-.66,0-1.33,0-1.99,1-.33,2-.67,3-1-.33,1.33-.67,2.66-1,3.99Z"/>
  <path class="cls-8" d="M133.93,28.95c.71-1.28,1.06-2.93,3-2.99,0,1,0,2,0,2.99-1.13,1.08-2.14,2.37-4,1.99.33-.66.67-1.33,1-1.99Z"/>
  <path class="cls-30" d="M142.92,29.95c-1.67,1.28-3.33,1.75-4.99,0,1.66,0,3.33,0,4.99,0Z"/>
  <path class="cls-1" d="M65.98,25.96c-1,0-2,0-3,0-.43.2-.82.13-1.16-.21-.09-.19-.18-.39-.27-.59-.09-1.05-.32-2.04-1.08-2.84-.9-1.14-1.55-2.48-2.78-3.36-.1-.43-.04-.83.15-1.22.77-.78,1.78-1.08,2.77-1.44.93-.33,1.89-.58,2.75-1.1.83-.54,1.55-1.22,2.39-1.75.35-.21.72-.38,1.1-.53,1.2-.35,2.2-1.22,3.48-1.37.46.06.83.27,1.12.62.34.61.45,1.27.41,1.96-.2,1.33-.55,2.63-.91,3.92-.15.41-.38.79-.65,1.13-.51.49-1.26.89-.83,1.83.2.57.23,1.14.14,1.73-.2.91.33,1.61.69,2.36.04.47-.09.89-.39,1.26-.4.27-.83.45-1.3.55-1.04.13-1.89-.24-2.63-.95Z"/>
  <path class="cls-1" d="M68.98,25.96h1c.71-.02,1.35.23,1.95.57,3.83,3.14,8.92,1.05,13.01,3.14.72,1.2-.17,1.71-.97,2.26-2.33.01-4.67.02-7,.03-3.33,0-6.66,0-9.99-.01l1-2c-.38-1.51-.19-2.88,1-3.99Z"/>
  <path class="cls-14" d="M51.99,28.95c1.08-1.12,2.38-2.14,2-3.99,2.34.34,3.26-1.21,4-3,.68-.43,1.26-.12,1.84.24.57,1.03,2.88.71,2.16,2.75h0c-.49.68-1.14,1.04-2,1-2.2,2.24-4.63,3.86-7.99,2.99Z"/>
  <path class="cls-28" d="M68.98,25.96c-.12,1.38.41,2.93-1,3.99-3.97.32-1.47-2.59-2-3.99,1,0,2,0,3,0Z"/>
  <path class="cls-21" d="M59.99,25.96c.45-.77,1.18-.97,2-1,.33.33.67.67,1,1-.16.89.37,2.31-.95,2.41-1.35.1-1.45-1.51-2.05-2.41Z"/>
  <path class="cls-35" d="M57.99,17.97c0,.33,0,.67,0,1,.25.22.34.44.25.66-.09.22-.17.33-.26.33-1.2-.6-1.94,2.26-3.19.51-.94-1.31-2.91-2.59-.8-4.5,1.17-.73,2.25-.27,3.32.25.58.44,1.06.93.68,1.74Z"/>
  <path class="cls-14" d="M56.99,16.97c-1-.33-2-.67-3-1,0-.67,0-1.33,0-2,0-1.93-.29-3.98,2-4.99.84.41,1.24,1.15,1.47,2,.17,1.43-.28,2.87.05,4.31.02.21.02.41.03.62-.04.43-.23.78-.56,1.06Z"/>
  <path class="cls-8" d="M50,12.98c1.28.05,1.94.72,2,2-.77.45-.97,1.18-1,2-.87,2.24-1.66.47-2.48-.05-.82-1.81-.12-3.05,1.48-3.94h0Z"/>
  <path class="cls-41" d="M49,16.97c.67.12,1.33,1.04,2,0,1.46,2.42-.29,2.69-2,3,.02-1.71-.91-1.5-2-1,0-.67,0-1.33,0-2h0c.67-.59,1.33-.59,2,0Z"/>
  <path class="cls-8" d="M57.99,19.97c0-.33,0-.66,0-.99,1.89.1,2.89,1.11,3,2.99.1,1.86-.86,1.61-2,1-.33-.33-.67-.67-1-1,0-.67,0-1.33,0-2Z"/>
  <path class="cls-14" d="M49,16.97c-.67,0-1.33,0-2,0-.18-1.66-1.36-3.33,0-4.99,1,.33,2,.67,3,1-.68,1.24-1.14,2.54-1,3.99Z"/>
  <path class="cls-14" d="M39,6c1.69.21,3.59-.62,5,.99-1.33.67-2.67,1.33-4,2-.33-1-.67-1.99-1-2.99Z"/>
  <path class="cls-21" d="M26.01,16.97c.24-3.37,2.85-2.79,4.99-2.99,0,.33,0,.67,0,1-1.33,1-2.67,1.99-4,2.99-.33-.33-.67-.67-1-1Z"/>
  <path class="cls-24" d="M21.02,5c2.66,0,5.31,0,7.97,0-2.66,1.51-5.31,1.52-7.97,0Z"/>
  <path class="cls-1" d="M84.97,29.95c-4.79-.41-10.08,1.5-13.99-3,.01-1.05.17-2.09.33-3.13.06-.43.2-.84.41-1.23.41-.55.92-.93,1.6-1.07,1.14-.02,2.09.38,2.83,1.24.24.99.62,1.59,1.55.47.79-1.17,3.15-.3,3.15-2.47.59-.6,1.35-.91,2.09-1.24.93-.52,1.31-1.63,2.25-2.16.85-.42,1.74-.51,2.67-.4,1.64.32,3.08,1,4.17,2.3.23.36.37.76.42,1.18-.14.99.06,1.92.64,2.77.19.37.28.76.31,1.17-.09.85-.52,1.57-.92,2.29-.65,1.62,1.22,2.09,1.49,3.28-.33.66-.67,1.32-1,1.99-1,0-2,0-3,0-1.59-.84-3.66-.49-4.99-1.99Z"/>
  <path class="cls-28" d="M84.97,29.95c2.29-.9,3.32,1.35,4.99,1.99-2,0-3.99,0-5.99-.01.33-.66.66-1.32,1-1.98Z"/>
  <path class="cls-14" d="M118.94,6.99c.67.33,1.33.67,2,1,.97.31,1.33,1.36,2.2,1.79.62.72,1.07,1.57,1.8,2.2h0c.67,1.36,1.86,2.39,2.42,3.82.09.43.07.86-.03,1.29-1.36,1.35-.28,3.9-2.39,4.88-.82.03-1.55.23-2,1-2.15,1.9-.55,4.88-2,6.99-.33,0-.66,0-1,0-.67,0-1.33,0-2,0-.79-.97-1.34-2.65-3-1-.67.98-1.33.98-2,0,.51-1.44,0-2.64-.89-3.73-.35-.13-.7-.25-1.07-.32-1.01-.17-2-.37-2.37-1.53.01-.45.14-.86.37-1.24.85-1.31,2.09-2.25,3.07-3.39-.02-.58-.37-.94-.83-1.22-1.55-.56-1.92,1.03-2.86,1.56-.37.22-.78.34-1.21.36-1.16-.4-2.49.19-3.6-.57-.53-.68-.71-1.49-.86-2.3-.18-.6-.59-.9-1.23-.89-.64.02-1.23-.1-1.78-.43-.7-.59-1.16-1.34-1.58-2.13-.53-1.06-.98-2.14-1.02-3.34-.02-2.58,2.45-2.63,3.85-3.77.33,0,.67,0,1,0,2.33-.77,4.66-.76,6.99,0h0c1.26,1.04,3.53,1.57,1.99,3.99.45,2.43,1.9,2.86,4,2,1.08.4,2.14.97,3.33.49,1.03-1.05-.38-.65-.6-.96-2.36-2.31-1.04-3.55,1.28-4.52Z"/>
  <path class="cls-21" d="M120.94,29.95c-2.21-2.71,1.29-5.65-.94-8.22,1.91-.58,2.04.96,2.94,1.24.03.82.23,1.55,1,1.99h0c.1,1.75,1.9,3.84-1,4.99-.67,0-1.33,0-2,0Z"/>
  <path class="cls-8" d="M138.92,24.96c-1.67,0-3.33,0-4.99,0q-.89-2.23,3-3c.64,1.02,2.12,1.47,2,2.99Z"/>
  <path class="cls-41" d="M126.93,16.97c0-.33,0-.67,0-1-.43-1.65.52-2.13,1.91-2.26,1.43,1.02,2.21,2.45,2.64,4.11-.04,1.06-.48,1.83-1.55,2.14-.82-.03-1.55-.23-2-1-.78-.44-1.59-.87-1-2Z"/>
  <path class="cls-21" d="M126.93,16.97c.33.67.67,1.33,1,2-1.27.73-.87,3.13-3,3,2.12-1.08-1.57-4.49,2-4.99Z"/>
  <path class="cls-19" d="M129.93,19.97c.33-.67.67-1.33,1-2,1.51-1.19,2.24-.07,3,1,0,.33,0,.66,0,1-1.33-1.2-2.67,3.38-4,0Z"/>
  <path class="cls-10" d="M123.94,24.96c.14-.75.18-1.67,1.28-1.46.26.05.63.8.55,1.12-.32,1.23-1.16.47-1.82.35,0,0,0,0,0,0Z"/>
  <path class="cls-28" d="M114.94,28.95c.1-1.21-.14-3.13,1.59-2.72,1.21.28,2.24,1.97,1.41,3.72-1-.33-2-.67-3-1Z"/>
  <path class="cls-24" d="M111.95,26.96c-1.33.66-2.66,1.33-3.99,1.99,0,0,0,0,0,0-1.36-3.81,2.09-3.79,3.99-4.99h0c1.03-.22,1.41.35,1.44,1.25.03.97-.02,1.94-1.44,1.74Z"/>
  <path class="cls-14" d="M111.95,26.96c1.25-1,1.25-2,0-3,2.45.32,2.63,1.19,1,4.99-.33-.67-.67-1.33-1-2Z"/>
  <path class="cls-14" d="M99.96,26.96c0,.67,0,1.33,0,2-.42.32-.86.37-1.33.13-1.2-2.08-5.39-2.06-4.12-5.87.3-.39.69-.62,1.17-.72,3.24-.02,6.42-1.6,9.72-.38,1.01.42,1.8,1.08,2.27,2.09.51,1.7,0,3.24-.71,4.75-2.47,1.62-3.21-.25-4-2-1-1.4-2-.38-3,0Z"/>
  <path class="cls-14" d="M106.95,28.95c0-1.66,0-3.33,0-4.99.37-.92.94-1.44,2-1,.73,1.13,1.9.97,3,1-1.24,1.74-3.59,2.58-3.99,4.99-.33,0-.67,0-1,0Z"/>
  <path class="cls-8" d="M98.96,28.95c.33,0,.67,0,1,0,0,.33,0,.66,0,1-1.67,1.46-3.33,1.46-5,0-.33-.54-.26-1.01.22-1.42,1.36-.79,2.62-.57,3.78.42Z"/>
  <path class="cls-8" d="M99.96,26.96c.38-1.88,2.05-2.52,3.4-2.29.91.15.47,1.61-.41,2.29-1,.6-2,.61-3,0Z"/>
  <path class="cls-8" d="M94.96,28.95c0,.33,0,.67,0,1,0,0-.5,0-.5,0,0,0-.5,0-.5,0-1.56-.28-3.27-.5-3.76-2.31-.32-1.21.76-1.54,1.75-1.69,1.8.19,3.43.57,3,2.99Z"/>
  <path class="cls-41" d="M58.99,5.99c3,0,6,0,8.99,0,1.02-.43,1.2.21,1.27.99-.68,1.5-1.88,1.97-3.43,1.71-1.37-1.49-2.33,1.14-3.63.37-.26-.2-.37-.42-.35-.68.02-.27.07-.4.14-.4-1-.66-2-1.33-2.99-1.99Z"/>
  <path class="cls-14" d="M61.98,7.99v1c-.07.2-.14.39-.21.59-.6.89-1.25,1.73-2.38,1.99-1.32.12-2.01-.76-2.68-1.69.08-.79.35-1.31,1.27-.89,1.25-.68,2.55-1.14,4-1Z"/>
  <path class="cls-35" d="M57.99,8.99c-.33.33-.67.67-1,1,.31.22.41.44.31.67-.1.22-.21.33-.31.33-.77-.45-.97-1.18-1-2,.39-.43.72-1.15,1.18-1.24.83-.16.72.69.82,1.24Z"/>
  <path class="cls-14" d="M87.98,5.99c1.33.06,2.66.93,3.99,0,1.5,1.64-.71,4.04,1.17,5.6.51,1.14.22,2.23-.21,3.31-.31.63-.74,1.12-1.42,1.34-.45-.02-.84-.17-1.17-.48-.73-1.07-1.87-1.72-2.74-2.66-.28-1.04-.64-2.01-1.92-2.19-.77-1.96.3-3.43,1.3-4.92.34,0,.67,0,1.01-.01Z"/>
  <path class="cls-28" d="M68.98,6.99c-.33-.33-.66-.66-1-1,0-.33,0-.67,0-1,1.01,0,2.01.01,3.02.02,1.94,1.06,4.04.22,6.05.51.49.02.89.21,1.21.58.08.48,0,.94-.23,1.36-1.74,1.55-2.7,4.08-5.48,4.32-2.45-.66-3.81-2.13-3.57-4.79Z"/>
  <path class="cls-14" d="M86.97,6c1.44,2.02-1.3,3.2-1,4.98.57.52.87,1.18.94,1.95.09.76-.06,1.47-.38,2.16-.81,1.21-1.63,2.4-2.97,3.12-2.09-.9-1.77-2.65-1.55-4.36.12-.43.31-.85.52-1.24.59-.88,1.08-1.76.15-2.74-.29-.33-.54-.69-.77-1.05-.56-1.06-.92-2.12.11-3.12.69-.2,1.37-.27,1.94.3,1-.61,2.01-.61,3.01.01Z"/>
  <path class="cls-25" d="M77.97,5.99c-2.32-.36-4.87.88-6.97-.98,2.32,0,4.65,0,6.97,0,.25.22.34.44.25.66-.08.22-.17.33-.25.33Z"/>
  <path class="cls-24" d="M77.97,5.99c0-.33,0-.66,0-.99,2,.29,4.23-.78,5.99.99-.66,0-1.33,0-1.99,0-.77.75-1.67,1.07-2.74.81-.47-.19-.88-.46-1.25-.81h0Z"/>
  <path class="cls-39" d="M108.95,5.99c-2.33,0-4.66,0-6.99,0,0-.32,0-.64,0-.95,2.33-.01,4.66-.03,6.99-.04,0,.33,0,.66,0,.99Z"/>
  <path class="cls-41" d="M92.96,11.98c-5.75-1.09-.5-4.02-1-5.99,3,0,5.99,0,8.99,0-.47,1.73-3.05,1.87-2.99,3.99-.4.49-.89.85-1.49,1.06-1.18.26-2.26.91-3.51.94Z"/>
  <path class="cls-1" d="M133.93,18.97c-1-.33-2-.67-3-1-1.08-1.12-2.37-2.14-2-3.99-.35-.22-.47-.44-.35-.67.12-.22.23-.33.35-.33.33-.67.67-1.33,1-2,.33,0,.67,0,1,0,.75.58.96,1.71,2,2,1.33,0,2.66,0,4,0,0,.66,0,1.33,0,1.99-1.45-.02-2.87.02-3,2,0,.67,0,1.33,0,2Z"/>
  <path class="cls-19" d="M132.93,12.98c-2.64,1.31-1.71-.96-2-2,.66,0,1.33,0,1.99,0,0,.67,0,1.33,0,2Z"/>
  <path class="cls-41" d="M118.94,12.98c-1.77,1.41-3.76,3.7-4-1,1.09-1.86-2.35-7.34,4-4.99.22,1.33-4.06,2.66,0,3.99.6.66.62,1.33,0,2Z"/>
  <path class="cls-41" d="M110.95,9.98c.11-1.72-1.41-2.62-1.99-3.99,1.34.19,3.08-.56,3.74,1.29.53,1.48-.11,2.48-1.75,2.7Z"/>
  <path class="cls-30" d="M122.93,9.98c-1.28-.05-1.94-.72-2-1.99,1.57-1.47,1.79-.24,2,1,.31.22.41.44.31.66-.1.22-.21.33-.31.33Z"/>
  <path class="cls-35" d="M122.93,9.98c0-.33,0-.66,0-.99.67.33,1.33.66,2,1,0,.67,0,1.33,0,2-1.28-.06-1.94-.72-2-2Z"/>
  <path class="cls-21" d="M128.93,12.98v1c-.67.67-1.33,1.33-2,2-1.79-.77-2.09-2.29-2-3.99,1.25.68,2.55,1.14,4,1Z"/>
  <path class="cls-1" d="M77.97,5.99c.33,0,.67,0,1,0,1.49,1.07,2.86,2.26,3.65,3.98.33.9.36,1.79-.11,2.65-.34.84-.88,1.48-1.77,1.77-.72.21-1.52.27-2.03.94-.65,1.77.72,3.15.91,4.75.06.98-.13,1.83-1.14,2.27-.96.21-1.8-.27-2.68-.46-1.06-.15-1.8-1.21-2.96-1.05-.82.49-.83,1.31-.86,2.12v1c-.48.59-1.08.7-1.78.45-.65-.28-1.1-.72-1.22-1.45v-2c-.1-.88.4-1.46,1-1.99,0-.33,0-.67,0-1,1.02-2.32,3.78-2.85,5.04-4.91,1.38-1.83,1.29-4.38,2.95-6.07,0-.33,0-.66,0-.99Z"/>
  <path class="cls-1" d="M68.98,6.99c1.84.83,1.57,3.76,4,3.99.29.43.29.85-.05,1.26-.71.35-1.37.32-1.95-.26-.33,0-.67,0-1,0-1.23.32-2.16,1.09-3,2-.33,0-.67,0-1,0-1.17-.08-1.5,1.17-2.4,1.53-.88.42-1.72.34-2.52-.21-.72-.9-.3-1.74.12-2.59,1.22-1.61,2.21-3.4,3.8-4.72,1.45.14,2.75-.32,3.99-1Z"/>
  <path class="cls-1" d="M75.97,13.98c-1.09,2.7-4.09,2.52-6,3.99-.14-1.45.32-2.75,1-3.99.92-.59,2.03-.76,2.96-1.32,1.04-.11,1.63.47,2.03,1.32Z"/>
  <path class="cls-21" d="M60.99,14.98c1,0,2,0,2.99,0,.31.22.42.44.32.66-.1.22-.21.33-.31.33-.73,1.13-1.9.98-3,1-1.7,1.14-2.74-.37-4-1h0c-.28-2.62,1.23-2.48,3.01-1.95.36.28.69.6.99.95Z"/>
  <path class="cls-40" d="M69.98,18.97c-.03.82-.23,1.55-1,1.99-.88-.16-2.51.24-2.3-.97.29-1.72,2.14-.74,3.3-1.02Z"/>
  <path class="cls-28" d="M66.98,13.98c-.23-2.5.84-3.07,3-2-.57,1.31-1.57,1.98-3,2Z"/>
  <path class="cls-1" d="M58.99,22.96c.82-.03,1.55-.23,2-1,2.08.42,2.59,1.36,1,2.99-1-.67-2-1.33-3-2Z"/>
  <path class="cls-28" d="M69.98,23.96c.67,0,1.33,0,2,0,.95,1.42-.14,2.17-1,2.99-.33-.33-.67-.67-1-1,0-.33,0-.67,0-1-.25-.22-.34-.44-.25-.67.09-.22.17-.33.26-.33Z"/>
  <path class="cls-20" d="M73.97,12.98c-.26,2.54-1.7,1.56-3,1,0-.67,0-1.33,0-2,.67,0,1.33,0,2,0,.57.1.89.44,1,1Z"/>
  <path class="cls-30" d="M69.98,23.96c0,.33,0,.66,0,1-.86-.09-2.03.28-2.4-.76-.39-1.08.73-1.04,1.41-1.24.33.33.67.67,1,1Z"/>
  <path class="cls-20" d="M63.98,15.97c0-.33,0-.66,0-.99.1-.9.11-1.97,1.15-2.23.76-.18.77.66.85,1.23-.67.66-1.33,1.33-2,1.99Z"/>
  <path class="cls-28" d="M66.54,23.99c-.79.24-1.26.54-1.61.44-.33-.09-.62-.59-.76-.96-.07-.19.25-.52.39-.79.37.24.73.48,1.99,1.31Z"/>
  <path class="cls-14" d="M56.99,15.97c1.33.33,2.66.67,4,1-.73,1.13-1.89.97-3,1-.33-.33-.67-.67-1-1,0-.33,0-.67,0-1Z"/>
  <path class="cls-14" d="M59.99,14.98c-1.37-.77-2.41-.58-3,1-1.86-1.66-.71-3.33,0-4.99,0-.33,0-.66,0-1,1,.33,2,.67,3,1,2.47,1.33.69,2.66,0,3.99Z"/>
  <path class="cls-14" d="M95.96,9.98c.67,0,1.33,0,2,0,.33,1,.67,2,1,3-.18,1.11.66,2.13.27,3.25-.5.8-1.22,1.24-2.15,1.32-2.91.06-.64,1.86-.92,2.81.18.89.36,1.78-.21,2.6h-1c-.55.57-.86,1.6-2,1h0c-.47-.95-1.61-1.68-1-2.99v-1c-.63-1.26-2.35-2.24-1-3.99.33-.33.67-.67,1-1,1.76-1.32,2.28-3.64,4-4.99Z"/>
  <path class="cls-28" d="M78.97,19.97c-1.58-1.79-3.05-3.6-1-5.99.86.42,1.83.56,2.65,1.1.86,2.11,3.49,3.21,3.34,5.89-1,0-2,0-3,0-.88.1-1.46-.4-2-1Z"/>
  <path class="cls-35" d="M92.96,23.96c.67-.33,1.33-.67,2-1,.04,1.31,0,2.74,1.76,2.93,1.96.21,2.29,1.46,2.23,3.06-1.33,0-2.66,0-4,0-1-1-2-2-3-2.99.33-.67.67-1.33,1-2Z"/>
  <path class="cls-41" d="M83.97,20.97c-.92-2.27-3.92-3.16-4-5.99-.23-.22-.3-.44-.22-.67.08-.22.15-.33.23-.33l2-1c.33-.35.67-.35,1,0,.22,1.69-.62,3.58,1,4.99.33-.36.67-.34,1,0-.02,1.1.13,2.26-1,2.99Z"/>
  <path class="cls-28" d="M84.97,17.97c-.33,0-.67,0-1,0-.02-1.45.02-2.87,2-3,.93-.79,1.92-.94,3-.3,1.01,1.5.46,2.54-1,3.29-1,0-2,0-3,0Z"/>
  <path class="cls-21" d="M75.98,20.97c.82.03,1.55.23,2,1,.03.67.03,1.33,0,2-.3,1.94-1.7,2.59-3.04,1.54-1.49-1.16.87-1.58,1.05-2.54-.58-.67-.62-1.33,0-2Z"/>
  <path class="cls-30" d="M77.97,23.96c-.98-.67-.98-1.33,0-2,.77-.45.97-1.18,1-2,.82.03,1.55.23,2,1,1.17,3.17-2.26,1.74-3,3Z"/>
  <path class="cls-19" d="M87.97,17.97c.33-1,.67-2,1-2.99,1.1-.55,1.46.41,2,1,0,0,0,0,0,0,.33,1.33.67,2.66,1,3.99-1.33-.67-2.66-1.33-4-2Z"/>
  <path class="cls-30" d="M75.98,20.97c0,.67,0,1.33,0,2-1-.33-2-.67-3-1-1.29-.68-1.92-1.58-1-2.99,1.72-.11,2.62,1.41,4,2Z"/>
  <path class="cls-28" d="M71.98,18.97c.33,1,.67,2,1,2.99-.33.33-.67.67-1,1-1.38-1.33-1.38-2.66,0-3.99Z"/>
  <path class="cls-33" d="M87.86,23.58c-.43.39-.71.65-1,.91-.25-.35-.58-.67-.71-1.05-.06-.18.27-.49.42-.74.36.25.73.5,1.29.88Z"/>
  <path class="cls-8" d="M91.96,20.97c.33,1,.67,1.99,1,2.99-.69-.88-3.71-.98-1-2.99Z"/>
  <path class="cls-14" d="M95.96,22.96c-.33-.67-.67-1.33-1-2,1.38-.97.47-3.09,2-3.99.67-.33,1.33-.67,2-1,.28-.36.63-.47,1.05-.27.95.97,1.87.56,2.78-.07.45-.11.84,0,1.16.34,0,1,0,2,0,3,.76.68,1.88.97,2.29,2.04.12,1.02-.48,1.55-1.29,1.95-3-1.13-6,1.79-8.99,0Z"/>
  <path class="cls-28" d="M104.95,22.96c.33-.67.66-1.33,1-2-.64-1.15-.81-2.07,1-1.99.33,0,.67,0,1,0,.97-.27,1.41.32,1.74,1.07.24,1.1-.1,2.04-.74,2.92,0,0,0,0,0,0-.67.33-1.33.67-2,1-.67-.33-1.33-.67-2-1Z"/>
  <path class="cls-14" d="M108.95,22.96c0-1,0-2,0-3,.32-.71.68-1.38,1.44-1.72,1.32-.43,2.52-.24,3.56.72-1.66,1.34-2.9,3.2-5,3.99Z"/>
  <path class="cls-30" d="M109.95,18.97c-.33.33-.67.67-1,1-.33-.33-.67-.67-1-1,.13-1.76,1.01-3.08,2.68-3.55,1.05-.3,1.16.78,1.31,1.56-.16,1.17-1.32,1.35-2,2Z"/>
  <path class="cls-28" d="M103.95,9.98c-1.09.43-1.31,2.54-3.79,1.27,2.2-.31.73-5.66,4.79-2.27-.09.57-.44.89-1,1Z"/>
  <path class="cls-19" d="M102.95,15.98c-.05,2.03-1.84,2.47-3.03,2.25-1.49-.29-.02-1.46.03-2.25-.31-.22-.42-.44-.31-.66.1-.22.21-.33.31-.33.66,0,1.33,0,1.99,0,.56.1.91.43,1,1Z"/>
  <path class="cls-41" d="M109.23,11.06c.57,1.99-.04,2.9-1.45,3.53-.91-1.56-.02-2.38,1.45-3.53Z"/>
  <path class="cls-21" d="M109.95,18.97c.67-.67,1.33-1.33,2-2,1.28.06,1.94.72,2,2-1.33,0-2.66,0-4,0Z"/>
  <path class="cls-10" d="M106.95,18.97c-.77.45-.97,1.18-1,1.99-1.28-.05-1.94-.72-1.99-1.99,1-.77,1.99-2.5,2.99,0Z"/>
  <path class="cls-30" d="M103.95,9.98c.33-.33.67-.67,1-1,.84.7,1.42,1.73.34,2.37-.99.58-1.18-.6-1.34-1.37Z"/>
  <path class="cls-10" d="M102.95,15.98c-.33-.33-.67-.67-1-1,.2-.68.16-1.8,1.24-1.41,1.04.37.66,1.54.76,2.4-.33,0-.67,0-1,0Z"/>
  <path class="cls-21" d="M118.94,12.98c0-.67,0-1.33,0-2,1.78-.8,1.97.56,1.84,1.61-.16,1.33-1.16.52-1.84.39Z"/>
  <path class="cls-41" d="M99.96,14.98c0,.33,0,.66,0,.99-.33,0-.66,0-1,0-.3-1-1.52-2,0-2.99.77.45.97,1.18,1,2Z"/>
  <path class="cls-30" d="M120.96,15.05c.27.68.52,1.04.52,1.4,0,.24-.31.59-.56.69-.67.28-.89-.25-.81-.73.06-.38.42-.71.85-1.36Z"/>
  <path class="cls-2" d="M64.98,7.99c-.35,2.05-1,3.93-3,4.99-.94-1.33-1.09-2.66,0-3.99,0,0,0,0,0,0,1.12.04,1.48-2.24,3-1Z"/>
  <path class="cls-41" d="M61.99,8.99c0,1.33,0,2.66,0,3.99-.33.67-.67,1.33-1,2h-.5s-.5,0-.5,0c.06-1.33.94-2.66,0-3.99.06-1.28.72-1.94,2-2Z"/>
  <path class="cls-35" d="M95.96,9.98c-.53,2.31-.99,4.66-4,4.99.33-1,.67-2,1-3,.57-1.31,1.57-1.98,3-2Z"/>
  <path class="cls-41" d="M90.96,15.97c-.67-.33-1.33-.66-2-1-1,0-2,0-3,0,0-.67,0-1.33,0-2,.67-.59,1.33-.59,2,0,2.19-.2,3.19.8,3,2.99Z"/>
  <path class="cls-8" d="M87.97,12.98c-.67,0-1.33,0-2,0,0-.67,0-1.33,0-2,2.39-1.06,1.93.73,2,2Z"/>
  <path class="cls-28" d="M73.97,12.98c-.33-.33-.67-.67-1-1,0-.33,0-.67,0-1,2.15-.73,2.13-4.16,5-3.99.3,2.61-.19,4.99-2,6.99-.67-.33-1.33-.67-2-1Z"/>
  <path class="cls-14" d="M81.97,9.98c-1.09-1.26-2.77-2.08-3-3.99,1,0,2,0,3,0,.33,1,.67,2,1,3-.11.56-.44.89-1,1Z"/>
  <path class="cls-24" d="M81.97,9.98c.33-.33.67-.67,1-1,0,0,0,0,0,0,1.54,1.03,1.98,2.33,1,3.99-.33,0-.67,0-1,0-.33,0-.66,0-1,0,0-1,0-2,0-2.99Z"/>
  <path class="cls-14" d="M83.97,12.98c.14-1.45-.32-2.75-1-3.99,2.72.74,2.39,2.23,1,3.99Z"/>
  <path class="cls-19" d="M79.98,13.98c0,.33,0,.66,0,1-1.09.5-2.02.71-2-1,.67-.98,1.34-.98,2,0Z"/>
  <path class="cls-30" d="M96.96,16.97c-.16,1.58.61,3.63-2,3.99-.29-1.08-.67-2.14-.86-3.23-.14-.81.11-1.86.96-1.94.59-.06,1.26.76,1.89,1.18Z"/>
</svg>